<svg width="116" height="76" viewBox="0 0 116 76" fill="none" xmlns="http://www.w3.org/2000/svg">
<path d="M90.5514 51.3036V45.2971H93.3175V46.1665C93.7917 45.4552 94.345 45.1391 94.8982 45.1391H94.9772C95.4514 45.1391 95.7676 45.2181 96.0837 45.4552C96.3208 45.6923 96.5579 46.0084 96.795 46.4036C97.3482 45.6133 97.9805 45.1391 98.7708 45.1391H98.8499C99.4821 45.1391 99.9563 45.3762 100.272 45.7713C100.589 46.1665 100.747 46.7197 100.747 47.352V51.3827H97.9015V48.3794C97.9015 48.1423 97.8224 47.9052 97.8224 47.7472C97.7434 47.5891 97.6644 47.5891 97.5063 47.5891C97.2692 47.5891 97.1111 47.8262 97.1111 48.3794V51.3827H94.345V48.3794C94.345 47.8262 94.2659 47.5891 93.9498 47.5891C93.6337 47.5891 93.4756 47.8262 93.4756 48.3794V51.3827H90.5514V51.3036ZM105.489 47.5101C105.489 47.273 105.41 47.1149 105.252 46.9568C105.173 46.7988 105.014 46.7988 104.777 46.7988C104.619 46.7988 104.461 46.8778 104.382 47.0359C104.224 47.1149 104.145 47.352 104.145 47.5101H105.489ZM108.097 49.5649C107.86 50.1972 107.464 50.6714 106.832 51.0665C106.2 51.4617 105.568 51.6198 104.698 51.6198C103.75 51.6198 102.881 51.3036 102.169 50.6714C101.458 50.0391 101.142 49.2488 101.142 48.3794C101.142 47.5101 101.458 46.7197 102.169 46.0875C102.881 45.4552 103.671 45.1391 104.698 45.1391C105.331 45.1391 105.963 45.2971 106.437 45.5342C106.911 45.7713 107.385 46.2455 107.702 46.7197C108.018 47.1939 108.176 47.7472 108.176 48.3004V48.7746H103.987C103.987 49.0907 104.066 49.3278 104.224 49.4859C104.382 49.644 104.54 49.723 104.777 49.723C105.014 49.723 105.173 49.5649 105.41 49.2488L108.097 49.5649ZM113.076 46.1665L112.997 45.1391V42.2939H115.842V51.3036H113.155V50.4343C112.839 50.8294 112.523 51.1456 112.206 51.3036C111.89 51.4617 111.574 51.5407 111.258 51.5407C110.626 51.5407 110.073 51.3036 109.519 50.8294C108.966 50.3552 108.808 49.5649 108.808 48.3794C108.808 47.5891 108.966 46.7988 109.361 46.1665C109.756 45.4552 110.389 45.1391 111.258 45.1391C111.969 45.1391 112.523 45.4552 113.076 46.1665ZM112.365 47.431C112.127 47.431 111.969 47.5101 111.811 47.6681C111.653 47.8262 111.574 48.0633 111.574 48.3004C111.574 48.5375 111.653 48.7746 111.811 48.9327C111.969 49.0907 112.127 49.1698 112.365 49.1698C112.602 49.1698 112.76 49.0907 112.918 48.9327C113.076 48.7746 113.155 48.5375 113.155 48.3004C113.155 48.0633 113.076 47.8262 112.918 47.6681C112.76 47.5101 112.523 47.431 112.365 47.431Z" fill="#DD2A1B"/>
<path fill-rule="evenodd" clip-rule="evenodd" d="M37.9943 0.0902068C40.9185 -0.463024 43.7637 1.59184 44.2379 4.51606C44.7911 7.44028 42.7363 10.2855 39.812 10.7597C36.8878 11.3129 34.0426 9.25804 33.5684 6.33382C33.0152 3.4096 34.991 0.564405 37.9943 0.0902068Z" fill="#DD2A1B"/>
<path fill-rule="evenodd" clip-rule="evenodd" d="M0.137476 16.7662C-1.60125 38.4212 13.415 42.1358 30.3281 43.7955C34.833 45.2181 37.283 49.2487 37.4411 51.6988C36.1765 18.3468 0.848773 32.7308 0.137476 16.7662Z" fill="#17733F"/>
<path fill-rule="evenodd" clip-rule="evenodd" d="M18.6311 13.0516C15.6279 13.0516 13.1779 15.5016 13.1779 18.5049C13.1779 21.5081 15.6279 23.9582 18.6311 23.9582C21.6344 23.9582 24.0844 21.5081 24.0844 18.5049C24.0844 15.5016 21.6344 13.0516 18.6311 13.0516Z" fill="#17733F"/>
<path d="M38.7057 51.3827V29.8857H44.159V39.0535L47.7155 29.8857H53.9591L49.2961 40.4761L54.5913 51.3036H47.8735L44.159 42.3729V51.3036H38.7057V51.3827ZM54.8284 51.3827L60.2817 29.8857H66.4463L71.8205 51.3827H65.814L65.3398 48.6955H61.1511L60.6769 51.3827H54.8284ZM64.4705 43.5584L63.364 36.4454H63.2059L62.0995 43.5584H64.4705ZM71.4254 51.3827L78.3012 36.3664H72.927V29.9647H87.0739L80.3561 44.8229H86.3626V51.3827H71.4254Z" fill="#DD2A1B"/>
<path fill-rule="evenodd" clip-rule="evenodd" d="M23.6102 41.6616C18.236 20.5598 32.3829 14.3952 48.7427 9.8903C52.9315 7.67737 54.5912 5.30638 54.275 2.85635C58.7009 35.8922 21.5554 25.7759 23.6102 41.6616Z" fill="#DD2A1B"/>
<path d="M44.9493 70.2715V75.4877H38.7057V57.7053H46.53C48.98 57.7053 50.7977 58.1795 51.9832 59.2069C53.1687 60.2343 53.801 61.815 53.801 64.107C53.801 65.8457 53.1687 67.2683 51.9042 68.4538C50.6397 69.6393 48.8219 70.1925 46.609 70.1925H44.9493V70.2715ZM44.9493 65.6086H46.4509C47.3203 65.6086 47.7945 65.1344 47.7945 64.186C47.7945 63.2376 47.3203 62.6844 46.3719 62.6844H44.9493V65.6086ZM63.443 57.7053C65.0237 57.7053 66.3673 57.9424 67.4737 58.3375C68.5802 58.7327 69.3705 59.444 69.9237 60.3134C70.477 61.1827 70.7141 62.3682 70.7141 63.7908C70.7141 66.0828 69.6076 67.5054 67.3157 68.2167L71.8996 75.4877H64.9447L61.8624 69.6393V75.4877H55.6978V57.7053H63.443ZM62.0204 65.7667H63.1269C64.3124 65.7667 64.8656 65.1344 64.8656 63.8699C64.8656 63.4747 64.7076 63.0795 64.4705 62.7634C64.1543 62.4473 63.8382 62.2892 63.364 62.2892H62.0995V65.7667H62.0204ZM82.3319 57.3101C83.6755 57.3101 84.861 57.5472 85.9674 58.0214C87.0739 58.4956 88.1013 59.1279 88.8917 59.9972C89.682 60.7876 90.3933 61.815 90.8675 63.0005C91.3417 64.186 91.5788 65.3715 91.5788 66.557C91.5788 68.2957 91.1836 69.7973 90.3143 71.2199C89.5239 72.6425 88.3384 73.749 86.9158 74.6183C85.4932 75.4087 83.9126 75.8829 82.2529 75.8829C80.5932 75.8829 79.0125 75.4877 77.59 74.6183C76.1674 73.749 74.9819 72.6425 74.1915 71.2199C73.4012 69.7973 72.927 68.2957 72.927 66.557C72.927 65.2925 73.1641 64.107 73.6383 63.0005C74.1125 61.894 74.7448 60.8666 75.6141 59.9972C76.4835 59.1279 77.4319 58.4956 78.5383 58.0214C79.7238 57.5472 80.9884 57.3101 82.3319 57.3101ZM82.3319 63.2376C81.5416 63.2376 80.8303 63.5537 80.198 64.186C79.6448 64.8973 79.3287 65.6086 79.3287 66.557C79.3287 67.5054 79.6448 68.2957 80.198 68.928C80.8303 69.6393 81.4626 69.8764 82.3319 69.8764C83.2013 69.8764 83.8336 69.5602 84.4658 68.928C85.0191 68.2957 85.3352 67.5054 85.3352 66.557C85.3352 65.6086 85.0191 64.8183 84.4658 64.186C83.8336 63.6328 83.1223 63.2376 82.3319 63.2376ZM108.729 65.1344L107.939 68.6118L105.963 75.4087H102.169L100.193 68.6118L99.4031 65.1344L99.166 68.3747L98.4547 75.4087H92.2901L95.2933 57.6262H101.774L104.224 66.636L106.753 57.6262H113.234L116 75.4087H109.835L109.045 68.3747L108.729 65.1344Z" fill="#17733F"/>
</svg>
